<svg viewBox="0 0 24 24" xmlns="http://www.w3.org/2000/svg" xmlns:xlink="http://www.w3.org/1999/xlink" width="24.000000" height="24.000000" fill="none">
	<rect id="Frame" width="24.000000" height="24.000000" x="0.000000" y="0.000000" fill="rgb(255,255,255)" fill-opacity="0" />
	<path id="Vector" d="M9.51725 15.5578L12 14.052L14.4828 15.5578L13.823 12.7328L16.0193 10.848L13.1328 10.5923L12 7.94225L10.8673 10.5923L7.98075 10.848L10.177 12.7328L9.51725 15.5578ZM12 21.9155L9.073 19L5 19L5 14.927L2.0845 12L5 9.073L5 5L9.073 5L12 2.0845L14.927 5L19 5L19 9.073L21.9155 12L19 14.927L19 19L14.927 19L12 21.9155ZM12 20.5L14.5 18L18 18L18 14.5L20.5 12L18 9.5L18 6L14.5 6L12 3.5L9.5 6L6 6L6 9.5L3.5 12L6 14.5L6 18L9.5 18L12 20.5Z" fill="rgb(166.731,166.731,166.731)" fill-rule="nonzero" />
</svg>
